<?xml version="1.0" encoding="utf-8"?>
<!-- Generator: Adobe Illustrator 16.0.0, SVG Export Plug-In . SVG Version: 6.00 Build 0)  -->
<!DOCTYPE svg PUBLIC "-//W3C//DTD SVG 1.0//EN" "http://www.w3.org/TR/2001/REC-SVG-20010904/DTD/svg10.dtd">
<svg version="1.0" id="Ebene_1" xmlns="http://www.w3.org/2000/svg" xmlns:xlink="http://www.w3.org/1999/xlink" x="0px" y="0px"
	 width="595.28px" height="841.89px" viewBox="0 0 595.28 841.89" enable-background="new 0 0 595.28 841.89" xml:space="preserve">
<g>
	<path d="M313.404,179.021h-64.17v42.78h76.202v25.4h-76.202v94.918h-26.737v-94.918h-78.875v-25.4h78.875v-42.78H156.99v-25.4
		h65.507V49.345h25.4c7.123,0.898,7.562,3.572,1.337,8.021v96.255h64.17V179.021z M175.707,137.579
		c-8.021-20.492-16.042-36.973-24.064-49.464l24.064-12.032c9.796,13.369,18.256,30.309,25.401,50.801L175.707,137.579z
		 M267.951,129.557c8.021-17.818,15.144-36.973,21.39-57.485l26.737,9.358c6.225,2.674,5.348,5.348-2.674,8.021
		c-8.021,25.86-14.705,42.78-20.053,50.801L267.951,129.557z M369.553,80.093c7.123,0.898,7.562,3.572,1.337,8.021v184.489h-26.737
		V80.093H369.553z M429.713,56.029c7.123,0.898,7.562,3.572,1.337,8.021v258.017c0,12.47-5.808,18.716-17.38,18.716h-36.096
		l-5.348-25.401h26.738c3.551,0,5.347-1.775,5.347-5.348V56.029H429.713z"/>
	<path d="M440.407,498.802v25.4h-82.886c19.594,23.187,50.801,38.77,93.581,46.791l-9.358,26.737
		c-16.042-2.674-28.973-6.685-38.77-12.032v18.717H187.738v-16.043c-13.369,8.021-26.737,14.268-40.106,18.717l-10.695-25.401
		c42.78-13.368,73.967-32.523,93.582-57.485h-81.55v-25.4h65.507c-6.245-10.695-14.705-20.931-25.4-30.748l22.727-17.38
		c14.246,9.818,24.941,21.391,32.085,34.759l-20.053,13.369h118.981c7.123-15.145,13.369-32.085,18.717-50.801l29.411,12.031
		c3.551,3.572,2.214,5.808-4.011,6.685c-4.47,9.817-9.817,20.513-16.043,32.085H440.407z M374.9,755.481v-6.685H214.476v10.695
		h-26.737v-74.865h213.9v70.854H374.9z M234.529,568.319v-12.032c-8.92,8.92-20.952,17.839-36.096,26.737h197.857
		c-16.043-6.225-29.871-15.583-41.443-28.074v13.369H234.529z M209.128,636.5v-16.043h169.783V636.5H209.128z M209.128,668.585
		v-16.043h169.783v16.043H209.128z M214.476,727.407H374.9v-21.39H214.476V727.407z M330.784,524.202h-69.518
		c-6.246,9.818-12.491,17.38-18.717,22.728h105.613C341.02,540.704,335.233,533.122,330.784,524.202z M313.404,480.086l-25.4,17.379
		c-4.47-8.021-13.369-18.716-26.737-32.085l22.727-16.043C295.565,458.257,305.383,468.513,313.404,480.086z"/>
</g>
<g>
</g>
<g>
</g>
<g>
</g>
<g>
</g>
<g>
</g>
<g>
</g>
</svg>
